<?xml version="1.0" encoding="UTF-8"?>
<svg id="Layer_1" data-name="Layer 1" xmlns="http://www.w3.org/2000/svg" version="1.1" viewBox="0 0 500 500">
  <defs>
    <style>
      .cls-1 {
        fill: #1a1a1a;
        stroke-width: 0px;
      }
    </style>
  </defs>
  <path class="cls-1" d="M500,100v250c0,27.6-11.2,52.6-29.3,70.7-18.1,18.1-43.1,29.3-70.7,29.3H100c-55.2,0-100-44.8-100-100V100c0-27.6,22.4-50,50-50s26.3,5.6,35.3,14.7c9.1,9,14.7,21.5,14.7,35.3v200c0,13.8,5.6,26.3,14.6,35.4,9.1,9,21.5,14.6,35.4,14.6s26.3-5.6,35.3-14.6c9.1-9.1,14.7-21.5,14.7-35.4v-95.2c0-27.6,22.4-50,50-50s26.3,5.6,35.3,14.7c9.1,9,14.7,21.5,14.7,35.3v95.2c0,13.8,5.6,26.3,14.6,35.4,9.1,9,21.5,14.6,35.4,14.6s26.3-5.6,35.3-14.6c9.1-9.1,14.7-21.5,14.7-35.4V100c0-27.6,22.4-50,50-50s26.3,5.6,35.3,14.7c9.1,9,14.7,21.5,14.7,35.3Z"/>
</svg>