<?xml version="1.0" encoding="UTF-8"?>
<svg id="Cookie" xmlns="http://www.w3.org/2000/svg" width="119.38" height="99.78" viewBox="0 0 119.38 99.78">
  <defs>
    <style>
      .cls-1 {
        fill: #1a1a1a;
        stroke-width: 0px;
      }
    </style>
  </defs>
  <path class="cls-1" d="M59.69,0C32.14,0,9.8,22.34,9.8,49.89s22.34,49.89,49.89,49.89,49.89-22.34,49.89-49.89S87.24,0,59.69,0ZM51.98,9.69c2.31,0,4.19,1.88,4.19,4.19s-1.88,4.19-4.19,4.19-4.19-1.88-4.19-4.19,1.88-4.19,4.19-4.19ZM49.59,30.47c4.25,0,7.7,3.45,7.7,7.7s-3.45,7.7-7.7,7.7-7.7-3.45-7.7-7.7,3.45-7.7,7.7-7.7ZM24.08,56.34c-3.34,0-6.04-2.71-6.04-6.04s2.71-6.04,6.04-6.04,6.04,2.71,6.04,6.04-2.71,6.04-6.04,6.04ZM48.72,83.74c-4.77,0-8.63-3.86-8.63-8.63s3.86-8.63,8.63-8.63,8.63,3.86,8.63,8.63-3.86,8.63-8.63,8.63ZM69.06,55.93c0-3.64,2.95-6.59,6.59-6.59s6.59,2.95,6.59,6.59-2.95,6.59-6.59,6.59-6.59-2.95-6.59-6.59ZM82.24,84.31c-2.31,0-4.19-1.88-4.19-4.19s1.88-4.19,4.19-4.19,4.19,1.88,4.19,4.19-1.88,4.19-4.19,4.19ZM79.48,38.17c-5.75,0-10.42-4.66-10.42-10.42s4.66-10.42,10.42-10.42,10.42,4.66,10.42,10.42-4.66,10.42-10.42,10.42Z"/>
</svg>