<?xml version="1.0" encoding="UTF-8"?>
<svg id="Layer_2" data-name="Layer 2" xmlns="http://www.w3.org/2000/svg" version="1.1" viewBox="0 0 200 200">
  <defs>
    <style>
      .cls-1 {
        fill: #1a1a1a;
        stroke-width: 0px;
      }
    </style>
  </defs>
  <path class="cls-1" d="M100,0C44.8,0,0,44.8,0,100s44.8,100,100,100,100-44.8,100-100S155.2,0,100,0ZM87,133.8c0,7.7-6.3,14-14,14s-14-6.3-14-14v-67.5c0-7.7,6.3-14,14-14s14,6.3,14,14v67.5ZM141,133.8c0,7.7-6.3,14-14,14s-14-6.3-14-14v-67.5c0-7.7,6.3-14,14-14s14,6.3,14,14v67.5Z"/>
</svg>